HIERARCHY
ROOT Hips
{
	OFFSET -0.001795 -0.223333 0.028219
	CHANNELS 6 Xposition Yposition Zposition Zrotation Yrotation Xrotation 
	JOINT LeftUpLeg
	{
		OFFSET 0.069520 -0.091406 -0.006815
		CHANNELS 3 Zrotation Yrotation Xrotation
		JOINT LeftLeg
		{
			OFFSET 0.034277 -0.375199 -0.004496
			CHANNELS 3 Zrotation Yrotation Xrotation
			JOINT LeftFoot
			{
				OFFSET -0.013596 -0.397961 -0.043693
				CHANNELS 3 Zrotation Yrotation Xrotation
				JOINT LeftToe
				{
					OFFSET 0.026358 -0.055791 0.119288
					CHANNELS 3 Zrotation Yrotation Xrotation
					End Site
					{
						OFFSET 0.000000 0.000000 0.000000
					}
				}
			}
		}
	}
	JOINT RightUpLeg
	{
		OFFSET -0.067670 -0.090522 -0.004320
		CHANNELS 3 Zrotation Yrotation Xrotation
		JOINT RightLeg
		{
			OFFSET -0.038290 -0.382569 -0.008850
			CHANNELS 3 Zrotation Yrotation Xrotation
			JOINT RightFoot
			{
				OFFSET 0.015774 -0.398415 -0.042312
				CHANNELS 3 Zrotation Yrotation Xrotation
				JOINT RightToe
				{
					OFFSET -0.025372 -0.048144 0.123348
					CHANNELS 3 Zrotation Yrotation Xrotation
					End Site
					{
						OFFSET 0.000000 0.000000 0.000000
					}
				}
			}
		}
	}
	JOINT Spine
	{
		OFFSET -0.002533 0.108963 -0.026696
		CHANNELS 3 Zrotation Yrotation Xrotation
		JOINT Spine1
		{
			OFFSET 0.005487 0.135180 0.001092
			CHANNELS 3 Zrotation Yrotation Xrotation
			JOINT Spine2
			{
				OFFSET 0.001457 0.052922 0.025425
				CHANNELS 3 Zrotation Yrotation Xrotation
				JOINT Neck
				{
					OFFSET -0.002778 0.213870 -0.042857
					CHANNELS 3 Zrotation Yrotation Xrotation
					JOINT Head
					{
						OFFSET 0.005152 0.064970 0.051349
						CHANNELS 3 Zrotation Yrotation Xrotation
						End Site
						{
							OFFSET 0.000000 0.000000 0.000000
						}
					}
				}
				JOINT LeftShoulder
				{
					OFFSET 0.078845 0.121749 -0.034090
					CHANNELS 3 Zrotation Yrotation Xrotation
					JOINT LeftArm
					{
						OFFSET 0.090977 0.030469 -0.008868
						CHANNELS 3 Zrotation Yrotation Xrotation
						JOINT LeftForeArm
						{
							OFFSET 0.259612 -0.012772 -0.027456
							CHANNELS 3 Zrotation Yrotation Xrotation
							JOINT LeftHand
							{
								OFFSET 0.249234 0.008986 -0.001171
								CHANNELS 3 Zrotation Yrotation Xrotation
								End Site
								{
									OFFSET 0.000000 0.000000 0.000000
								}
							}
						}
					}
				}
				JOINT RightShoulder
				{
					OFFSET -0.081759 0.118833 -0.038615
					CHANNELS 3 Zrotation Yrotation Xrotation
					JOINT RightArm
					{
						OFFSET -0.096012 0.032551 -0.009143
						CHANNELS 3 Zrotation Yrotation Xrotation
						JOINT RightForeArm
						{
							OFFSET -0.253742 -0.013329 -0.021401
							CHANNELS 3 Zrotation Yrotation Xrotation
							JOINT RightHand
							{
								OFFSET -0.255298 0.007772 -0.005559
								CHANNELS 3 Zrotation Yrotation Xrotation
								End Site
								{
									OFFSET 0.000000 0.000000 0.000000
								}
							}
						}
					}
				}
			}
		}
	}
}
MOTION
Frames: 7
Frame Time: 0.050000
0.000000 0.964423 0.000000 -0.137159 -2.868289 0.113619 0.603866 0.440449 4.961170 -1.303532 0.242456 -4.061937 0.991313 7.280032 17.455279 0.000000 0.000000 0.000000 -1.995693 -0.116685 2.199965 1.415734 -0.161895 -0.739858 -0.935569 -6.696078 10.560814 0.000000 0.000000 0.000000 6.945850 -0.788589 7.346462 -7.012309 2.293155 -23.059081 -1.640458 6.054895 26.272616 11.314012 -4.277761 -26.492722 0.000000 0.000000 0.000000 -24.012922 -11.867399 4.271263 -46.701359 -5.998748 -5.081586 -9.296442 -26.261373 3.203079 0.000000 0.000000 0.000000 32.887981 -0.990421 -1.109746 49.144394 8.939234 -4.088603 9.412645 25.405262 3.302871 0.000000 0.000000 0.000000 
0.000205 0.963178 0.000333 -0.268509 -3.120273 0.519905 0.791089 0.436175 5.009416 -1.261074 0.248852 -4.445030 0.706614 6.565587 16.406974 0.000000 0.000000 0.000000 -1.852362 -0.072458 1.597335 1.239397 -0.134036 -0.375833 -0.776150 -6.247588 10.065624 0.000000 0.000000 0.000000 7.098548 -0.717973 6.453481 -7.388122 2.390353 -22.784772 -1.737228 5.950369 26.206705 11.834089 -4.454799 -27.347177 0.000000 0.000000 0.000000 -23.224555 -11.941920 4.412561 -47.432232 -6.645330 -4.948920 -8.466207 -25.791581 2.969075 0.000000 0.000000 0.000000 32.810899 -1.139954 -1.360202 50.422879 8.681889 -4.170108 9.129219 26.137896 3.362264 0.000000 0.000000 0.000000 
0.000269 0.962793 0.000495 -0.111416 -3.019822 0.710803 0.777629 0.374211 4.322808 -1.596707 0.253016 -3.437302 0.794058 6.541511 15.720622 0.000000 0.000000 0.000000 -1.585086 -0.041121 1.077513 0.819631 -0.084422 -0.088039 -1.358308 -7.438531 10.258551 0.000000 0.000000 0.000000 7.045610 -0.671062 5.970612 -7.414119 2.389340 -22.974558 -1.587590 5.654167 26.695511 10.431291 -3.897273 -26.300515 0.000000 0.000000 0.000000 -23.334583 -12.333924 4.760580 -46.818216 -6.889985 -4.879767 -9.136744 -24.688076 2.982316 0.000000 0.000000 0.000000 32.591776 -0.536053 -0.981260 49.909172 9.038869 -4.050541 9.460144 26.481955 3.478215 0.000000 0.000000 0.000000 
0.000211 0.962915 0.000871 -0.097982 -3.612544 0.574300 0.531444 0.440019 4.869263 -1.431644 0.240605 -3.451198 1.145316 6.739866 14.626225 0.000000 0.000000 0.000000 -1.819570 -0.032714 1.121628 1.302759 -0.129800 -0.071959 -1.331860 -7.472143 10.317151 0.000000 0.000000 0.000000 7.195511 -0.682161 6.055759 -7.403966 2.360451 -23.462054 -1.762524 5.960948 27.179051 10.693225 -4.062323 -26.446842 0.000000 0.000000 0.000000 -23.652590 -12.606593 4.980066 -46.831226 -6.638219 -5.022211 -8.505499 -24.939374 2.884077 0.000000 0.000000 0.000000 33.215638 -0.450556 -0.965873 49.291863 9.280805 -3.991323 9.861744 26.843114 3.626243 0.000000 0.000000 0.000000 
0.000078 0.963147 0.001341 -0.207709 -3.788085 0.433784 0.573795 0.449929 4.984960 -1.376949 0.235063 -3.395907 1.355253 7.105332 14.880336 0.000000 0.000000 0.000000 -1.603497 -0.044023 1.149861 1.092228 -0.109485 -0.085955 -1.253320 -7.503631 10.819733 0.000000 0.000000 0.000000 6.916281 -0.658128 6.016385 -6.628884 2.184540 -22.755815 -1.982032 5.872397 26.304139 10.301109 -4.070153 -25.031740 0.000000 0.000000 0.000000 -23.824673 -12.318282 4.826648 -46.978398 -6.301787 -5.079882 -8.917611 -24.722958 2.946019 0.000000 0.000000 0.000000 33.090775 -0.138918 -0.852881 49.092417 9.251327 -3.877612 9.775263 26.989735 3.603449 0.000000 0.000000 0.000000 
-0.000076 0.963345 0.001892 -0.184905 -4.127290 0.375930 0.488856 0.468245 5.107766 -1.382473 0.232500 -3.226560 1.553599 7.310280 14.611142 0.000000 0.000000 0.000000 -1.607627 -0.046745 1.202010 0.994399 -0.094387 0.067846 -1.070854 -7.099528 10.536119 0.000000 0.000000 0.000000 6.813720 -0.642953 5.950005 -6.486342 2.137595 -22.870438 -2.047544 5.759909 26.180572 10.102840 -4.059420 -24.678317 0.000000 0.000000 0.000000 -23.927157 -12.201482 4.868589 -46.914961 -5.702612 -5.313324 -8.991580 -25.471938 3.070319 0.000000 0.000000 0.000000 32.969052 0.233875 -0.737607 49.087919 8.986341 -3.919656 9.757967 27.288507 3.623450 0.000000 0.000000 0.000000 
-0.000183 0.963196 0.002206 -0.305480 -4.350492 0.348085 0.586353 0.468683 5.149188 -1.363318 0.234294 -3.356109 1.728552 7.645813 15.030612 0.000000 0.000000 0.000000 -1.420996 -0.060229 1.274661 0.818281 -0.080763 -0.048298 -0.913519 -6.847476 10.608195 0.000000 0.000000 0.000000 6.738457 -0.629259 5.867441 -6.325658 2.093468 -22.816071 -2.016366 5.604430 26.080169 10.044780 -4.067017 -24.658985 0.000000 0.000000 0.000000 -24.014304 -11.665052 4.645330 -47.143743 -5.336486 -5.486450 -9.270010 -25.998123 3.218865 0.000000 0.000000 0.000000 32.605498 0.218491 -0.874621 49.525620 8.699951 -3.985822 9.805989 27.609097 3.674766 0.000000 0.000000 0.000000 
